<svg width="252" height="182" viewBox="0 0 252 182" fill="none" xmlns="http://www.w3.org/2000/svg">
<path d="M33.0533 176.167C38.0457 179.729 44.0363 181.5 51 181.5L201 181.5C207.964 181.5 213.954 179.729 218.947 176.167C223.941 172.604 226.5 168.266 226.5 163.162L226.5 67.7766C234.125 64.4957 240.187 60.1471 244.667 54.7208C249.212 49.2151 251.5 43.196 251.5 36.676C251.5 26.6664 246.493 18.1293 236.603 11.0728C226.715 4.01739 214.839 0.5 201 0.5L51 0.5C37.1613 0.5 25.2853 4.01739 15.3971 11.0728C5.50739 18.1293 0.5 26.6664 0.5 36.676C0.5 43.196 2.78799 49.2151 7.33316 54.7208C11.8128 60.1471 17.8751 64.4957 25.5 67.7766L25.5 163.162C25.5 168.266 28.0595 172.604 33.0533 176.167Z" fill="#1C1B1F" stroke="black"/>
</svg>
